<svg version="1.0" xmlns="http://www.w3.org/2000/svg" width="500.000000ptpx" height="470.000000ptpx" viewBox="0 0 500.000000 470.000000" preserveAspectRatio="xMidYMid meet" transform="rotate(0) scale(1, 1)">

<g transform="translate(0.000000,470.000000) scale(0.100000,-0.100000)" fill="#28d1e8" stroke="none">
<path d="M0 2350 l0 -2350 2500 0 2500 0 0 2350 0 2350 -2500 0 -2500 0 0&#10;-2350z m2675 2066 c22 -23 58 -63 80 -91 22 -27 218 -229 435 -447 217 -218&#10;407 -409 421 -425 15 -15 114 -114 220 -219 107 -106 224 -223 260 -260 36&#10;-38 89 -89 117 -114 29 -25 55 -53 58 -62 3 -10 9 -18 14 -18 5 0 36 -25 67&#10;-56 32 -31 83 -77 113 -103 80 -67 170 -162 181 -190 15 -38 0 -82 -41 -120&#10;-21 -20 -84 -79 -140 -131 -56 -52 -151 -143 -212 -202 -60 -60 -114 -108&#10;-119 -108 -5 0 -9 -5 -9 -11 0 -17 -101 -110 -112 -103 -7 4 -8 2 -4 -4 6 -11&#10;-201 -226 -337 -350 -26 -23 -47 -44 -47 -46 0 -4 -112 -114 -204 -201 -32&#10;-30 -67 -55 -77 -55 -13 0 -19 -7 -19 -21 0 -11 -4 -17 -10 -14 -5 3 -10 1&#10;-10 -4 0 -22 -90 -116 -120 -126 -11 -3 -20 -14 -21 -23 0 -14 -2 -13 -9 3 -8&#10;18 -9 17 -9 -7 -1 -16 -5 -28 -11 -28 -5 0 -10 -7 -10 -15 0 -8 -4 -15 -10&#10;-15 -5 0 -26 -16 -46 -36 -28 -29 -38 -34 -45 -23 -6 11 -11 11 -21 1 -9 -9&#10;-9 -12 5 -12 9 0 17 -3 17 -6 0 -12 -84 -83 -92 -78 -4 3 -8 -5 -8 -17 0 -23&#10;-42 -69 -63 -69 -7 0 -13 10 -12 23 0 12 -4 23 -10 24 -5 2 -11 -17 -11 -41&#10;-2 -55 -24 -80 -70 -80 -33 0 -34 0 -28 -38 5 -30 3 -38 -9 -38 -8 0 -18 -7&#10;-21 -16 -3 -8 -11 -12 -16 -9 -6 4 -17 1 -25 -5 -8 -7 -15 -9 -15 -5 0 4 -9&#10;-3 -19 -16 -14 -17 -16 -26 -8 -32 7 -5 1 -5 -13 -2 -14 4 -30 13 -36 21 -10&#10;13 -12 13 -17 1 -3 -8 0 -20 6 -26 6 -6 8 -11 4 -11 -13 0 -77 71 -77 86 0 8&#10;-5 14 -11 14 -6 0 -8 7 -5 16 4 12 1 14 -14 9 -13 -4 -22 -1 -26 9 -3 8 -14&#10;18 -25 21 -10 4 -19 11 -19 16 0 6 6 7 13 3 8 -5 8 -3 -2 9 -7 9 -17 14 -22&#10;12 -12 -8 -49 17 -49 32 0 7 -4 13 -10 13 -5 0 -10 6 -10 14 0 8 -7 17 -16 20&#10;-13 5 -15 14 -10 41 4 22 3 35 -4 35 -5 0 -10 -4 -10 -10 0 -5 -10 -10 -22 -9&#10;-13 0 -17 3 -10 6 17 7 -25 64 -47 62 -30 -3 -41 1 -41 14 0 7 -13 26 -30 42&#10;-16 16 -30 32 -30 37 0 16 -33 46 -46 41 -8 -3 -17 2 -20 11 -3 9 -12 16 -20&#10;16 -8 0 -14 6 -14 13 0 8 -9 22 -20 32 -11 10 -17 22 -13 28 4 6 0 8 -9 4 -11&#10;-4 -39 17 -86 62 -38 37 -77 71 -86 74 -10 4 -15 11 -12 16 3 5 -4 11 -15 14&#10;-11 3 -23 15 -26 26 -3 12 -10 21 -16 21 -7 0 -30 18 -52 39 -156 153 -185&#10;183 -185 191 0 6 -4 10 -8 10 -8 0 -43 34 -196 194 -31 32 -56 62 -56 65 0 3&#10;-41 44 -92 91 -148 138 -228 218 -228 227 0 4 -13 18 -28 30 -26 20 -100 90&#10;-240 226 -61 59 -82 91 -82 122 0 25 75 104 260 275 56 52 107 101 114 108 6&#10;8 129 132 274 277 144 145 262 265 262 267 0 8 79 88 87 88 4 1 22 19 38 41&#10;17 22 43 52 59 67 96 89 122 111 129 112 4 0 7 6 7 13 0 7 32 42 71 78 107 97&#10;167 158 239 239 36 40 83 90 105 109 21 20 57 56 80 80 22 24 64 67 94 95 30&#10;28 66 64 80 80 14 16 39 41 56 55 16 14 39 36 51 47 46 44 82 39 139 -20z"/>
<path d="M2385 3720 c-49 -3 -110 -13 -135 -23 -25 -9 -52 -17 -61 -17 -8 0&#10;-34 -9 -57 -20 -22 -11 -45 -20 -50 -20 -15 0 -135 -61 -178 -91 -24 -16 -47&#10;-29 -53 -29 -6 0 -11 -3 -11 -8 0 -4 -11 -14 -24 -22 -67 -41 -233 -209 -283&#10;-286 -84 -129 -113 -176 -113 -184 0 -9 -25 -56 -61 -115 -34 -55 -68 -146&#10;-80 -220 -29 -164 -37 -364 -18 -460 5 -27 14 -75 19 -105 5 -30 16 -75 25&#10;-99 8 -24 15 -55 15 -68 0 -13 7 -31 15 -40 9 -8 19 -28 22 -44 3 -16 9 -29&#10;13 -29 5 0 19 -22 31 -50 12 -27 25 -50 28 -50 4 0 12 -15 20 -32 8 -18 17&#10;-35 20 -38 3 -3 22 -27 41 -55 48 -69 61 -86 89 -109 13 -12 61 -58 106 -103&#10;46 -46 87 -83 92 -83 6 0 18 -9 28 -20 10 -11 22 -20 26 -20 5 0 32 -14 61&#10;-31 80 -48 161 -89 174 -89 7 0 14 -3 16 -7 6 -14 71 -46 100 -49 15 -2 43&#10;-12 61 -21 29 -16 63 -18 327 -17 315 1 299 -1 415 55 22 10 46 19 53 19 12 0&#10;52 20 62 31 3 3 21 11 40 19 19 7 46 22 59 32 13 10 30 18 38 18 8 0 24 9 36&#10;20 14 14 30 19 44 15 18 -4 23 -1 23 14 0 11 9 23 20 26 11 4 31 17 44 30 13&#10;13 26 22 29 19 2 -3 12 8 22 23 10 15 47 58 84 94 116 116 160 174 227 307 9&#10;17 20 32 25 32 5 0 9 7 9 15 0 8 3 15 8 15 10 0 32 50 32 74 0 19 8 63 52 271&#10;15 72 16 371 1 420 -6 22 -22 83 -34 135 -34 145 -128 328 -212 413 -13 12&#10;-31 39 -41 60 -17 37 -71 97 -87 97 -5 0 -25 17 -46 38 -21 20 -58 53 -83 72&#10;-25 19 -52 42 -61 52 -9 10 -19 18 -23 18 -3 0 -15 8 -25 18 -39 34 -50 42&#10;-66 42 -8 0 -15 5 -15 10 0 6 -7 10 -15 10 -8 0 -15 3 -15 8 0 4 -15 13 -32&#10;20 -18 7 -41 18 -50 23 -10 5 -25 9 -33 9 -15 0 -55 19 -65 31 -8 10 -99 29&#10;-230 49 -70 10 -248 10 -395 0z m320 -209 c-28 -11 101 -25 148 -16 23 5 45 2&#10;65 -9 27 -14 30 -19 22 -40 -7 -20 -5 -25 10 -29 11 -3 27 1 37 9 10 7 28 14&#10;40 14 16 0 20 -5 16 -20 -6 -22 7 -26 24 -9 8 8 17 6 34 -10 13 -11 28 -21 33&#10;-21 6 0 4 -5 -4 -10 -11 -7 -2 -10 33 -10 26 0 47 -4 47 -8 0 -5 16 -17 35&#10;-28 19 -10 35 -24 35 -31 0 -7 8 -13 18 -13 9 0 23 -9 30 -20 7 -11 19 -20 28&#10;-20 8 0 12 -4 9 -10 -3 -5 0 -10 7 -10 20 0 108 -85 108 -105 0 -9 5 -13 10&#10;-10 6 3 10 2 10 -3 0 -4 8 -17 18 -28 17 -18 54 -81 66 -114 3 -8 17 -33 31&#10;-55 35 -56 54 -99 62 -139 2 -11 7 -24 12 -30 5 -6 11 -24 14 -41 3 -16 11&#10;-52 17 -80 19 -86 29 -197 24 -275 -5 -83 -22 -201 -34 -240 -4 -14 -13 -45&#10;-20 -70 -7 -25 -21 -63 -32 -85 -79 -157 -102 -196 -128 -224 -17 -17 -30 -33&#10;-30 -36 0 -16 -113 -132 -160 -165 -19 -14 -51 -40 -70 -57 -19 -18 -42 -36&#10;-52 -39 -10 -3 -18 -10 -18 -15 0 -5 -7 -9 -15 -9 -8 0 -43 -14 -77 -30 -34&#10;-17 -67 -30 -75 -30 -7 0 -13 -3 -13 -8 0 -13 -67 -35 -180 -58 -56 -11 -458&#10;-9 -535 3 -85 14 -114 23 -185 58 -144 71 -141 68 -222 141 -15 13 -32 24 -36&#10;24 -5 0 -17 8 -28 18 -10 10 -27 21 -36 24 -9 4 -36 35 -59 70 -24 34 -57 77&#10;-75 95 -18 18 -47 63 -64 99 -17 37 -45 85 -63 108 -37 47 -57 82 -57 102 0 8&#10;-4 22 -9 32 -21 41 -31 153 -31 355 0 138 4 217 10 217 6 0 10 18 10 39 0 22&#10;8 56 19 78 10 21 29 59 41 86 13 26 26 47 30 47 3 0 12 16 20 35 8 19 17 35&#10;22 35 4 0 8 8 8 18 0 9 9 28 20 42 11 14 20 30 20 35 0 6 18 29 40 53 22 23&#10;40 44 40 47 0 8 114 125 123 125 4 0 19 11 32 25 14 13 42 32 62 41 21 10 40&#10;21 43 24 21 24 62 38 99 35 35 -3 41 -1 41 16 0 10 6 19 14 19 8 0 17 6 19 13&#10;3 6 6 2 6 -10 1 -23 11 -29 24 -16 4 3 2 12 -4 20 -6 7 -10 13 -8 14 2 0 19 1&#10;37 2 27 2 32 -2 32 -19 0 -12 7 -24 15 -27 24 -10 27 11 5 33 -25 25 -26 49&#10;-2 49 68 2 140 14 157 26 15 10 55 14 165 14 81 0 136 -4 125 -8z m275 -55 c0&#10;-3 -4 -8 -10 -11 -5 -3 -10 -1 -10 4 0 6 5 11 10 11 6 0 10 -2 10 -4z"/>
<path d="M2578 3503 c7 -3 16 -2 19 1 4 3 -2 6 -13 5 -11 0 -14 -3 -6 -6z"/>
<path d="M2606 3471 c-7 -11 28 -21 44 -11 8 5 7 9 -5 14 -23 8 -33 8 -39 -3z"/>
<path d="M2280 3451 c0 -12 40 -41 55 -41 5 0 2 5 -7 11 -10 5 -18 17 -18 24&#10;0 8 -7 15 -15 15 -8 0 -15 -4 -15 -9z"/>
<path d="M2398 3443 c-25 -3 -38 -9 -38 -19 0 -11 15 -14 62 -14 60 0 61 0 43&#10;20 -10 11 -21 19 -24 18 -3 -1 -23 -3 -43 -5z"/>
<path d="M2786 3405 c4 -8 8 -15 10 -15 2 0 4 7 4 15 0 8 -4 15 -10 15 -5 0&#10;-7 -7 -4 -15z"/>
<path d="M2818 3413 c7 -3 16 -2 19 1 4 3 -2 6 -13 5 -11 0 -14 -3 -6 -6z"/>
<path d="M3005 3410 c3 -5 8 -10 11 -10 2 0 4 5 4 10 0 6 -5 10 -11 10 -5 0&#10;-7 -4 -4 -10z"/>
<path d="M2308 3343 c6 -2 18 -2 25 0 6 3 1 5 -13 5 -14 0 -19 -2 -12 -5z"/>
<path d="M2962 3343 c-12 -2 -20 -8 -17 -13 6 -10 45 -1 45 11 0 5 -1 8 -2 8&#10;-2 -1 -13 -4 -26 -6z"/>
<path d="M1665 2710 c-3 -5 -15 -10 -25 -10 -33 0 -60 -47 -60 -106 0 -85 13&#10;-89 218 -58 28 4 42 2 42 -5 0 -6 6 -11 14 -11 19 0 31 -19 19 -31 -5 -5 -47&#10;-11 -93 -13 -118 -5 -220 -47 -220 -90 0 -8 -4 -18 -10 -21 -5 -3 -10 -42 -10&#10;-85 0 -43 5 -82 10 -85 6 -3 10 -14 10 -23 0 -26 41 -68 75 -77 58 -14 155&#10;-17 171 -5 17 15 109 16 147 1 39 -15 79 -14 103 3 21 15 23 35 36 371 0 15&#10;-13 127 -18 153 -2 12 -11 22 -19 22 -8 0 -15 4 -15 9 0 11 -66 38 -138 57&#10;-61 16 -228 19 -237 4z m220 -380 c4 -6 4 -29 0 -50 -7 -40 -7 -40 -53 -40&#10;-54 0 -81 20 -74 55 3 17 11 25 26 25 11 0 28 5 36 10 20 13 57 13 65 0z"/>
<path d="M3360 2712 c0 -5 -12 -15 -27 -23 -16 -8 -35 -22 -44 -31 -23 -26&#10;-45 -22 -90 14 -33 27 -50 33 -103 36 -46 3 -72 0 -96 -13 -26 -13 -58 -17&#10;-154 -16 -66 1 -127 -3 -135 -8 -12 -8 -13 -18 -2 -66 8 -37 13 -134 13 -271&#10;0 -152 3 -216 11 -221 49 -32 135 -41 180 -20 l27 12 0 190 c1 212 4 225 61&#10;225 71 0 81 -33 81 -249 l0 -169 24 -11 c33 -15 147 -14 162 1 9 9 12 69 12&#10;206 0 213 2 221 61 222 32 0 43 -12 63 -70 19 -54 22 -248 4 -296 -13 -36 -1&#10;-56 47 -74 36 -14 137 -1 152 19 9 11 12 79 13 237 0 253 -2 263 -75 337 l-47&#10;47 -69 0 c-38 0 -69 -4 -69 -8z"/>
<path d="M2395 2704 c-58 -8 -120 -27 -147 -46 -14 -10 -29 -18 -33 -18 -18 0&#10;-37 -35 -46 -87 -6 -32 -15 -62 -20 -67 -5 -6 -9 -54 -9 -108 0 -81 4 -104 21&#10;-135 35 -62 101 -135 136 -149 48 -21 290 -19 331 2 31 15 32 17 32 82 -1 104&#10;-26 122 -110 81 -40 -19 -51 -21 -102 -11 -32 6 -64 17 -71 24 -40 42 -49 136&#10;-18 197 15 28 31 42 63 54 61 23 79 21 136 -14 42 -26 54 -29 71 -20 24 13 45&#10;58 54 118 9 54 2 70 -36 82 -36 11 -206 21 -252 15z"/>
<path d="M2968 753 c7 -3 16 -2 19 1 4 3 -2 6 -13 5 -11 0 -14 -3 -6 -6z"/>
<path d="M2400 574 c1 -13 29 -48 34 -43 2 2 -4 15 -15 28 -10 13 -19 19 -19&#10;15z"/>
<path d="M2631 554 c0 -11 3 -14 6 -6 3 7 2 16 -1 19 -3 4 -6 -2 -5 -13z"/>
<path d="M2510 550 c0 -5 7 -10 16 -10 8 0 12 5 9 10 -3 6 -10 10 -16 10 -5 0&#10;-9 -4 -9 -10z"/>
<path d="M2631 514 c0 -11 3 -14 6 -6 3 7 2 16 -1 19 -3 4 -6 -2 -5 -13z"/>
<path d="M2585 489 c-4 -6 -5 -13 -2 -16 7 -7 27 6 27 18 0 12 -17 12 -25 -2z"/>
<path d="M2640 470 c0 -5 5 -10 10 -10 6 0 10 5 10 10 0 6 -4 10 -10 10 -5 0&#10;-10 -4 -10 -10z"/>
<path d="M2580 450 c0 -5 4 -10 9 -10 6 0 13 5 16 10 3 6 -1 10 -9 10 -9 0&#10;-16 -4 -16 -10z"/>
</g>
</svg>